<svg xmlns="http://www.w3.org/2000/svg" viewBox="0 0 256 256" role="img" aria-label="DirDetective"><path fill="#4B4AC7" d="M28 188V67c0-12 9-21 21-21h55c8 0 15 4 19 11l10 17c2 4 7 7 12 7h35c12 0 21 9 21 21v86c0 12-9 21-21 21H49c-12 0-21-9-21-21Z"/><circle cx="166" cy="126" r="51" fill="#EEEDFE" stroke="#4B4AC7" stroke-width="14"/><path fill="#EEEDFE" d="M188 164 203 149l43 43c7 7 7 17 0 24s-17 7-24 0Z"/><path fill="#4B4AC7" d="m196 164 7-7 38 38c4 4 4 10 0 14s-10 4-14 0Z"/><circle cx="166" cy="126" r="20" fill="#6C63D9" opacity=".42"/></svg>
